<?xml version="1.0" encoding="utf-8"?>
<!-- Generator: Adobe Illustrator 16.0.0, SVG Export Plug-In . SVG Version: 6.00 Build 0)  -->
<!DOCTYPE svg PUBLIC "-//W3C//DTD SVG 1.1//EN" "http://www.w3.org/Graphics/SVG/1.1/DTD/svg11.dtd">
<svg version="1.1" id="Layer_1" xmlns="http://www.w3.org/2000/svg" xmlns:xlink="http://www.w3.org/1999/xlink" x="0px" y="0px"
	 width="1440px" height="900px" viewBox="0 0 1440 900" enable-background="new 0 0 1440 900" xml:space="preserve">
<title>LinkedIn icon</title>
<path fill="#2D2D2D" d="M1036.763,766.95H903.487V558.112c0-49.8-1.013-113.888-69.45-113.888c-69.487,0-80.1,54.188-80.1,110.213
	V766.95H620.662V337.5h128.025v58.537h1.725c17.888-33.75,61.388-69.375,126.375-69.375c135.038,0,160.013,88.875,160.013,204.562
	V766.95H1036.763z M470.138,278.737c-42.9,0-77.363-34.725-77.363-77.438c0-42.675,34.5-77.362,77.363-77.362
	c42.75,0,77.399,34.688,77.399,77.362C547.537,244.013,512.85,278.737,470.138,278.737z M536.963,766.95h-133.65V337.5h133.65
	V766.95z M1103.438,0H336.413C299.7,0,270,29.025,270,64.837v770.325C270,871.013,299.7,900,336.413,900h766.913
	C1140,900,1170,871.013,1170,835.162V64.837C1170,29.025,1140,0,1103.325,0H1103.438z"/>
</svg>
