<?xml version="1.0" encoding="utf-8"?>
<!-- Generator: Adobe Illustrator 16.0.0, SVG Export Plug-In . SVG Version: 6.00 Build 0)  -->
<!DOCTYPE svg PUBLIC "-//W3C//DTD SVG 1.1//EN" "http://www.w3.org/Graphics/SVG/1.1/DTD/svg11.dtd">
<svg version="1.1" id="Layer_1" xmlns="http://www.w3.org/2000/svg" xmlns:xlink="http://www.w3.org/1999/xlink" x="0px" y="0px"
	 width="1440px" height="900px" viewBox="0 0 1440 900" enable-background="new 0 0 1440 900" xml:space="preserve">
<title>GitHub icon</title>
<path fill="#2D2D2D" d="M720,11.138c-248.625,0-450,201.487-450,450c0,198.862,128.925,367.5,307.688,426.938
	c22.5,4.237,30.75-9.675,30.75-21.638c0-10.688-0.375-39-0.562-76.5C482.7,817.088,456.3,729.562,456.3,729.562
	c-20.475-51.938-50.062-65.812-50.062-65.812c-40.762-27.9,3.15-27.338,3.15-27.338c45.188,3.15,68.925,46.351,68.925,46.351
	c40.125,68.812,105.338,48.938,131.062,37.425c4.05-29.1,15.638-48.938,28.5-60.188C537.938,648.75,432.9,610.05,432.9,437.625
	c0-49.125,17.438-89.25,46.312-120.75c-5.062-11.362-20.25-57.112,3.938-119.1c0,0,37.688-12.075,123.75,46.125
	c36-10.012,74.25-14.962,112.5-15.188c38.25,0.225,76.5,5.175,112.5,15.188c85.5-58.2,123.188-46.125,123.188-46.125
	c24.188,61.988,9,107.738,4.5,119.1c28.688,31.5,46.125,71.625,46.125,120.75c0,172.875-105.188,210.938-205.312,222
	c15.75,13.5,30.375,41.1,30.375,83.25c0,60.225-0.562,108.6-0.562,123.225c0,11.812,7.875,25.875,30.938,21.375
	C1041.188,828.45,1170,659.7,1170,461.138C1170,212.625,968.513,11.138,720,11.138"/>
</svg>
