<?xml version="1.0" encoding="utf-8"?>
<!-- Generator: Adobe Illustrator 16.0.0, SVG Export Plug-In . SVG Version: 6.00 Build 0)  -->
<!DOCTYPE svg PUBLIC "-//W3C//DTD SVG 1.1//EN" "http://www.w3.org/Graphics/SVG/1.1/DTD/svg11.dtd">
<svg version="1.1" id="Layer_1" xmlns="http://www.w3.org/2000/svg" xmlns:xlink="http://www.w3.org/1999/xlink" x="0px" y="0px"
	 width="39px" height="24px" viewBox="-15 0 39 24" enable-background="new -15 0 39 24" xml:space="preserve">
<path fill="#067AE4" d="M15.812,13.012H-9.264c-0.562,0-0.997-0.452-0.997-1.013c0-0.56,0.436-1.012,0.997-1.012h25.075L10.442,5.62
	c-0.421-0.366-0.467-1.007-0.098-1.429c0.363-0.42,1.006-0.466,1.426-0.101c0.043,0.036,0.076,0.072,0.111,0.112l7.09,7.088
	c0.385,0.394,0.385,1.023,0,1.417l-7.09,7.09c-0.359,0.428-1.002,0.479-1.428,0.117c-0.427-0.359-0.48-0.998-0.119-1.424
	c0.029-0.041,0.07-0.076,0.107-0.113l5.377-5.366H15.812z"/>
</svg>
